<svg xmlns="http://www.w3.org/2000/svg" width="325" height="65" viewBox="0 0 325 65">
  <g id="グループ_71" data-name="グループ 71" transform="translate(935 -3641)">
    <g id="グループ_70" data-name="グループ 70">
      <g id="グループ_67" data-name="グループ 67">
        <rect id="長方形_61" data-name="長方形 61" width="325" height="65" transform="translate(-935 3641)" fill="#00994b"/>
        <g id="グループ_25" data-name="グループ 25" transform="translate(-870.468 3663.105)">
          <path id="パス_149" data-name="パス 149" d="M6.151-7.846H5l-2.735,3.1v-6.006H1.288v9.118h.973v-2.03L3.355-4.831l1.836,3.2H6.309L4.023-5.488ZM9.117-6.071a1.472,1.472,0,0,1,1.508-1.179c.936,0,1.313.389,1.313,1.386v.328a16.95,16.95,0,0,0-1.945.195C8.558-5.087,7.95-4.357,7.95-3.3A1.732,1.732,0,0,0,9.859-1.488a2.485,2.485,0,0,0,2.128-1.131,7.451,7.451,0,0,0,.134.985h.9A15.427,15.427,0,0,1,12.9-3.652V-5.925c0-1.41-.754-2.067-2.249-2.067A2.344,2.344,0,0,0,8.181-6.363Zm2.821,2.614A2.205,2.205,0,0,1,10.1-2.23,1.063,1.063,0,0,1,8.911-3.348c0-.693.389-1.118,1.3-1.313a9.421,9.421,0,0,1,1.726-.195Zm4.7-4.389h-.948v6.212h.985V-5.889a2.471,2.471,0,0,1,1.811-1.228c.669,0,1.046.377,1.046,1.264v4.219h1.009V-6.205A1.628,1.628,0,0,0,18.819-7.98a2.874,2.874,0,0,0-2.176,1.264ZM24.12-6.071a1.472,1.472,0,0,1,1.508-1.179c.936,0,1.313.389,1.313,1.386v.328A16.95,16.95,0,0,0,25-5.342c-1.435.255-2.042.985-2.042,2.042a1.732,1.732,0,0,0,1.909,1.811,2.485,2.485,0,0,0,2.128-1.131,7.452,7.452,0,0,0,.134.985h.9A15.426,15.426,0,0,1,27.9-3.652V-5.925c0-1.41-.754-2.067-2.249-2.067a2.344,2.344,0,0,0-2.468,1.629ZM26.94-3.458A2.205,2.205,0,0,1,25.1-2.23a1.063,1.063,0,0,1-1.191-1.118c0-.693.389-1.118,1.3-1.313a9.421,9.421,0,0,1,1.726-.195Zm7.6-4.389H30.259V-7.1H33.42L30.065-2.29v.657h4.559v-.729H31.171L34.539-7.2Zm7.112,0h-.985V-3.6a2.308,2.308,0,0,1-1.787,1.252c-.669,0-1.07-.353-1.07-1.2V-7.846H36.8v4.6a1.633,1.633,0,0,0,1.739,1.763A2.62,2.62,0,0,0,40.7-2.777v1.143h.948Zm3.793,0H44.5v6.212h.973V-5.889a2.178,2.178,0,0,1,1.678-1.228c.608,0,.973.365.973,1.264v4.219h.973V-5.889a2.138,2.138,0,0,1,1.653-1.228c.644,0,1.021.389,1.021,1.264v4.219h1V-6.205A1.6,1.6,0,0,0,51.1-7.98,2.6,2.6,0,0,0,49.03-6.728,1.476,1.476,0,0,0,47.474-7.98a2.5,2.5,0,0,0-2.03,1.264Zm11.124,0h-1v6.212h1Zm.109-2.4H55.462v1.2h1.216Zm9.434,1.909h-.875l-.231.657a1.015,1.015,0,0,0-1.046-.887,3.23,3.23,0,0,0-2.869,3.258,1.449,1.449,0,0,0,1.593,1.58,1.779,1.779,0,0,0,1.459-.863c.024.608.365.875,1.082.875a3.156,3.156,0,0,0,2.833-3.246c0-2.188-1.8-3.793-4.243-3.793A4.8,4.8,0,0,0,59-5.925a4.342,4.342,0,0,0,4.608,4.462,4.649,4.649,0,0,0,4.121-2.079l-.389-.3a4.082,4.082,0,0,1-3.732,1.921,3.829,3.829,0,0,1-4.1-4,4.253,4.253,0,0,1,4.316-4.365c2.2,0,3.732,1.349,3.732,3.319a2.626,2.626,0,0,1-2.2,2.76.454.454,0,0,1-.462-.413,1.977,1.977,0,0,1,.134-.681Zm-1.86,2.784c-.316.875-.863,1.313-1.447,1.313-.5,0-.766-.426-.766-1.033,0-1.386,1.058-2.784,1.957-2.784.474,0,.742.353.79,1Zm10.7-2.3H73.941l-1.07,3.5c-.158.523-.292,1.021-.438,1.544h-.122c-.146-.535-.267-1-.426-1.52L70.792-7.846H69.735l2.152,6.091-.1.292c-.292.887-.742,1.24-1.41,1.24A3.267,3.267,0,0,1,69.735-.3L69.8.518a3.667,3.667,0,0,0,.6.049c1.106,0,1.811-.511,2.3-1.909Zm4.377-.134c-1.58,0-2.675,1.264-2.675,3.27s1.082,3.234,2.662,3.234,2.675-1.264,2.675-3.27S80.883-7.98,79.327-7.98Zm0,.766c1.033,0,1.653.887,1.653,2.48,0,1.617-.632,2.492-1.666,2.492s-1.653-.887-1.653-2.492S78.281-7.214,79.327-7.214Zm9.313.717a2.207,2.207,0,0,0-2.286-1.5c-1.471,0-2.2.742-2.2,1.69s.426,1.447,1.824,1.8l.5.109c1.131.292,1.362.5,1.362,1.155,0,.547-.389,1.021-1.41,1.021a1.5,1.5,0,0,1-1.532-1.118l-.96.34A2.372,2.372,0,0,0,86.4-1.488c1.617,0,2.4-.8,2.4-1.848,0-1.021-.523-1.5-1.945-1.836l-.5-.122c-1.009-.243-1.277-.486-1.277-1.082,0-.523.462-.887,1.264-.887a1.334,1.334,0,0,1,1.349,1.07ZM92.2-10.752h-.985v9.118H92.2V-5.889a2.506,2.506,0,0,1,1.811-1.228c.669,0,1.046.377,1.046,1.264v4.219h1.009V-6.205a1.644,1.644,0,0,0-1.726-1.787A2.83,2.83,0,0,0,92.2-6.74Zm7.671,2.906h-1v6.212h1Zm.109-2.4H98.767v1.2h1.216Zm4,.243-.973.219v1.933H102v.766h1.009v4.012a1.411,1.411,0,0,0,1.6,1.58,6.37,6.37,0,0,0,.96-.061l.049-.766a3.438,3.438,0,0,1-.778.073c-.559,0-.863-.316-.863-1.009V-7.08h1.483v-.766h-1.483Zm5.9,2.018c-1.58,0-2.675,1.264-2.675,3.27s1.082,3.234,2.662,3.234,2.675-1.264,2.675-3.27S111.435-7.98,109.879-7.98Zm0,.766c1.033,0,1.653.887,1.653,2.48,0,1.617-.632,2.492-1.666,2.492s-1.653-.887-1.653-2.492S108.833-7.214,109.879-7.214Zm6.067-.632H115v6.212h.973V-5.889a2.178,2.178,0,0,1,1.678-1.228c.608,0,.973.365.973,1.264v4.219h.973V-5.889a2.137,2.137,0,0,1,1.653-1.228c.644,0,1.021.389,1.021,1.264v4.219h1V-6.205A1.6,1.6,0,0,0,121.6-7.98a2.6,2.6,0,0,0-2.067,1.252,1.476,1.476,0,0,0-1.556-1.252,2.5,2.5,0,0,0-2.03,1.264Zm11.124,0h-1v6.212h1Zm.109-2.4h-1.216v1.2h1.216Zm7.6,2.4h-1.155l-2.735,3.1v-6.006h-.973v9.118h.973v-2.03l1.094-1.167,1.836,3.2h1.118l-2.286-3.854Zm4.486-.134c-1.58,0-2.675,1.264-2.675,3.27s1.082,3.234,2.662,3.234,2.675-1.264,2.675-3.27S140.819-7.98,139.263-7.98Zm0,.766c1.033,0,1.653.887,1.653,2.48,0,1.617-.632,2.492-1.666,2.492S137.6-3.129,137.6-4.734,138.218-7.214,139.263-7.214Zm6.067-.632h-.948v6.212h.973V-5.889a2.178,2.178,0,0,1,1.678-1.228c.608,0,.973.365.973,1.264v4.219h.973V-5.889a2.138,2.138,0,0,1,1.653-1.228c.644,0,1.021.389,1.021,1.264v4.219h1V-6.205a1.6,1.6,0,0,0-1.666-1.775,2.6,2.6,0,0,0-2.067,1.252A1.476,1.476,0,0,0,147.36-7.98a2.5,2.5,0,0,0-2.03,1.264Zm14.942,0h-.985V-3.6A2.308,2.308,0,0,1,157.5-2.351c-.669,0-1.07-.353-1.07-1.2V-7.846H155.42v4.6a1.633,1.633,0,0,0,1.739,1.763,2.62,2.62,0,0,0,2.164-1.289v1.143h.948ZM164.381-10l-.973.219v1.933H162.4v.766h1.009v4.012a1.411,1.411,0,0,0,1.6,1.58,6.37,6.37,0,0,0,.96-.061l.049-.766a3.438,3.438,0,0,1-.778.073c-.559,0-.863-.316-.863-1.009V-7.08h1.483v-.766h-1.483Zm8.535,5.4v-.219c0-1.994-1.106-3.173-2.626-3.173-1.544,0-2.687,1.289-2.687,3.27,0,2.018,1.094,3.234,2.772,3.234a2.4,2.4,0,0,0,2.5-1.7l-.912-.3a1.491,1.491,0,0,1-1.58,1.264c-1.106,0-1.824-.851-1.824-2.371Zm-4.328-.705c.085-1.179.754-1.933,1.714-1.933s1.556.681,1.653,1.933Zm7.708-2.541h-.948v6.212h.985V-5.889a2.471,2.471,0,0,1,1.811-1.228c.669,0,1.046.377,1.046,1.264v4.219H180.2V-6.205a1.628,1.628,0,0,0-1.726-1.775,2.874,2.874,0,0,0-2.176,1.264Zm7.829,4.887H182.8v1.325h1.325Zm3.9-4.887h-.985V-1.4c0,.875-.377,1.216-.96,1.216-.1,0-.207-.012-.328-.024l.073.742c.158.012.267.036.365.036a1.658,1.658,0,0,0,1.836-1.848Zm.122-2.4h-1.216v1.2h1.216Zm3.769,2.4h-.948V.567h.985V-2.57a1.86,1.86,0,0,0,1.739,1.082c1.362,0,2.456-1.2,2.456-3.27s-1.021-3.222-2.4-3.222a2.187,2.187,0,0,0-1.836,1.106Zm.036,1.86a1.838,1.838,0,0,1,1.6-1.191c.9,0,1.58.827,1.58,2.444s-.729,2.444-1.653,2.444c-.62,0-1.118-.365-1.532-1.155Z" transform="translate(13 16)" fill="#fff"/>
        </g>
        <g id="グループ_37" data-name="グループ 37" transform="translate(464.664 -322.752)">
          <g id="長方形_30" data-name="長方形 30" transform="translate(-1114.664 3987.752)" fill="none" stroke="#fff" stroke-width="1">
            <rect width="22" height="17" stroke="none"/>
            <rect x="0.5" y="0.5" width="21" height="16" fill="none"/>
          </g>
          <path id="パス_1" data-name="パス 1" d="M-1114.4,3923.675l10.7,9.18,10.744-9.18" transform="translate(-0.121 64.863)" fill="none" stroke="#fff" stroke-width="1"/>
        </g>
        <path id="パス_154" data-name="パス 154" d="M2.347-6.119v2.61a8.244,8.244,0,0,1-1.72.527l.211.8a4.351,4.351,0,0,1,.62-.257c.222-.07.456-.164.889-.339V.342c0,.257-.082.328-.421.328A8.055,8.055,0,0,1,.8.587a2.1,2.1,0,0,1,.164.737,10.338,10.338,0,0,0,1.042.047c.761,0,1.077-.246,1.077-.831V-3.076c.41-.164.655-.281,1.358-.6l-.012-.7c-.573.269-.7.328-1.346.585V-6.119h.468a6.993,6.993,0,0,1,.9.059v-.772a5.18,5.18,0,0,1-.878.059H3.085V-7.909a8.029,8.029,0,0,1,.07-1.17H2.277A8.553,8.553,0,0,1,2.347-7.9v1.124h-.69a5.7,5.7,0,0,1-.948-.07v.8a7.267,7.267,0,0,1,.96-.07Zm6.671,4.9a9.846,9.846,0,0,1,1.159.047c-.035-.41-.047-.784-.047-1.311v-4.67c0-.562.012-.913.047-1.334a9.376,9.376,0,0,1-1.147.047h-3a9.093,9.093,0,0,1-1.112-.047c.023.363.035.667.035,1.217v4.927c0,.515-.012.866-.035,1.17.363-.035.714-.047,1.1-.047ZM5.706-7.745H9.381v2.551H5.706Zm0,3.23H9.381v2.633H5.706ZM3.822.962A12.737,12.737,0,0,1,5.109.9h4.8a10.684,10.684,0,0,1,1.264.07V.131A9.492,9.492,0,0,1,9.908.2h-4.8A11.9,11.9,0,0,1,3.822.143ZM17.14-4.656h-3.09a7.034,7.034,0,0,1-1.1-.059v.831a7,7,0,0,1,1.065-.059h7.022v1.615H14.4a6.2,6.2,0,0,1-1.077-.059v.831a6.323,6.323,0,0,1,1.042-.059h6.671V.178H13.922A6.621,6.621,0,0,1,12.845.119V.962a7.5,7.5,0,0,1,1.088-.07h7.1v.62h.819A9.176,9.176,0,0,1,21.787.33V-3.8a7.5,7.5,0,0,1,.047-.925,4.706,4.706,0,0,1-.925.07H17.9V-8.12a5.729,5.729,0,0,1,.07-1.053h-.9a5.817,5.817,0,0,1,.07,1.053ZM13.161-8.085a11.59,11.59,0,0,1,1.791,2.879l.69-.4a12.691,12.691,0,0,0-1.826-2.844Zm7.993-.433A9.517,9.517,0,0,1,19.282-5.4l.644.4a11.817,11.817,0,0,0,1.954-3.16Zm6.3,1.5H26.292v1.159h1.159Zm0,6.32V-1.859H26.292V-.7ZM35.76-5.065v1.592H32.729a7.683,7.683,0,0,1-1.147-.07v.819a7.958,7.958,0,0,1,1.135-.07H35.76V.295h-3.2a10.8,10.8,0,0,1-1.334-.07v.843A10.208,10.208,0,0,1,32.565.985h7.373a8.609,8.609,0,0,1,1.287.082V.225a9.808,9.808,0,0,1-1.276.07H36.521v-3.09h3.265a7.9,7.9,0,0,1,1.147.07v-.819a7.468,7.468,0,0,1-1.147.07H36.521V-5.065h1.428a6.71,6.71,0,0,1,1.077.059v-.726a12.537,12.537,0,0,0,2.282,1.194,3.627,3.627,0,0,1,.468-.749,10.485,10.485,0,0,1-3.055-1.568,7.933,7.933,0,0,1-2.095-2.118h-.9a9.583,9.583,0,0,1-4.939,3.71,2.521,2.521,0,0,1,.492.69,11.18,11.18,0,0,0,2.13-1.135v.7A7.053,7.053,0,0,1,34.5-5.065Zm-1.276-.644a7.071,7.071,0,0,1-.995-.047,9.756,9.756,0,0,0,2.692-2.563,10.612,10.612,0,0,0,2.8,2.563,7.54,7.54,0,0,1-1.03.047Zm-1.72,3.581A8.847,8.847,0,0,1,33.783-.045l.679-.269a11.9,11.9,0,0,0-1.03-2.118Zm6.144-.281A7.9,7.9,0,0,1,37.738-.2l.655.269A14.025,14.025,0,0,0,39.646-2.1Zm9.878-3.558V-3.5H47.323a8.563,8.563,0,0,1-1.205-.07v.8c.363-.035.784-.059,1.217-.059h1.451V.2H46.492a9.132,9.132,0,0,1-1.264-.07V.938C45.58.9,46.024.88,46.516.88H51.97c.48,0,.925.023,1.276.059V.131A9.2,9.2,0,0,1,51.97.2H49.547V-2.83h1.744c.421,0,.854.023,1.205.059v-.8a8.745,8.745,0,0,1-1.217.07H49.547V-5.967H51.63c.445,0,.889.023,1.229.059v-.819a8.763,8.763,0,0,1-1.241.07H47a8.249,8.249,0,0,1-1.229-.07v.819c.351-.035.784-.059,1.229-.059ZM44-.045a8.933,8.933,0,0,1-.082,1.4h.913A9.788,9.788,0,0,1,44.749-.01V-6.364a22.047,22.047,0,0,0,1.1-2.575l-.772-.246a8.171,8.171,0,0,1-.492,1.568,10.62,10.62,0,0,1-2.2,3.382,1.421,1.421,0,0,1,.421.667,9.636,9.636,0,0,0,1.252-1.779C44.023-4.808,44-4.34,44-3.813Zm3.546-8.532A9.594,9.594,0,0,1,49.863-7.02l.55-.6A14.482,14.482,0,0,0,48.061-9.1Z" transform="translate(-918 3677.357)" fill="#fff"/>
      </g>
    </g>
  </g>
</svg>
