<svg xmlns="http://www.w3.org/2000/svg" width="455" height="65" viewBox="0 0 455 65">
  <g id="グループ_72" data-name="グループ 72" transform="translate(1439 -3641)">
    <g id="グループ_69" data-name="グループ 69">
      <g id="グループ_68" data-name="グループ 68" transform="translate(-1895 217)">
        <rect id="長方形_29" data-name="長方形 29" width="455" height="65" transform="translate(456 3424)" fill="#00994b"/>
        <g id="グループ_19" data-name="グループ 19" transform="translate(20.536 489)">
          <path id="パス_148" data-name="パス 148" d="M7.564-7H6.074L2.543-3v-7.751H1.288V1.016H2.543V-1.6L3.955-3.111,6.325,1.016H7.768L4.818-3.958Zm4.3,2.291a1.9,1.9,0,0,1,1.946-1.522c1.208,0,1.695.5,1.695,1.789v.424a21.876,21.876,0,0,0-2.51.251c-1.851.329-2.636,1.271-2.636,2.636A2.235,2.235,0,0,0,12.82,1.2,3.207,3.207,0,0,0,15.566-.255a9.617,9.617,0,0,0,.173,1.271H16.9a19.91,19.91,0,0,1-.157-2.6V-4.523c0-1.82-.973-2.667-2.9-2.667a3.025,3.025,0,0,0-3.185,2.1ZM15.5-1.338A2.846,2.846,0,0,1,13.134.247,1.371,1.371,0,0,1,11.6-1.2c0-.894.5-1.444,1.679-1.695A12.158,12.158,0,0,1,15.5-3.142ZM22.046-7H20.823V1.016h1.271V-4.476a3.189,3.189,0,0,1,2.338-1.585c.863,0,1.349.486,1.349,1.632V1.016h1.3v-5.9a2.1,2.1,0,0,0-2.228-2.291,3.709,3.709,0,0,0-2.809,1.632Zm10.12,2.291a1.9,1.9,0,0,1,1.946-1.522c1.208,0,1.695.5,1.695,1.789v.424a21.876,21.876,0,0,0-2.51.251C31.445-3.44,30.66-2.5,30.66-1.134A2.235,2.235,0,0,0,33.124,1.2,3.207,3.207,0,0,0,35.87-.255a9.617,9.617,0,0,0,.173,1.271H37.2a19.91,19.91,0,0,1-.157-2.6V-4.523c0-1.82-.973-2.667-2.9-2.667a3.025,3.025,0,0,0-3.185,2.1Zm3.64,3.373A2.846,2.846,0,0,1,33.438.247,1.371,1.371,0,0,1,31.9-1.2c0-.894.5-1.444,1.679-1.695a12.158,12.158,0,0,1,2.228-.251ZM46.084-7H40.561v.957h4.08L40.31.169v.847h5.884V.074H41.738L46.084-6.17Zm9.65,0H54.463v5.476A2.978,2.978,0,0,1,52.156.09c-.863,0-1.381-.455-1.381-1.553V-7h-1.3v5.931A2.108,2.108,0,0,0,51.717,1.2,3.381,3.381,0,0,0,54.51-.459V1.016h1.224ZM61.1-7H59.876V1.016h1.255V-4.476A2.81,2.81,0,0,1,63.3-6.061c.785,0,1.255.471,1.255,1.632V1.016h1.255V-4.476a2.759,2.759,0,0,1,2.134-1.585c.832,0,1.318.5,1.318,1.632V1.016h1.287v-5.9A2.067,2.067,0,0,0,68.4-7.175a3.35,3.35,0,0,0-2.667,1.616A1.9,1.9,0,0,0,63.72-7.175,3.223,3.223,0,0,0,61.1-5.543ZM75.927-7H74.641V1.016h1.287Zm.141-3.091H74.5V-8.54h1.569ZM88.715-7.63h-1.13l-.3.847a1.31,1.31,0,0,0-1.349-1.145c-1.93,0-3.7,2.04-3.7,4.205a1.87,1.87,0,0,0,2.055,2.04A2.3,2.3,0,0,0,86.173-2.8c.031.785.471,1.13,1.4,1.13a4.073,4.073,0,0,0,3.656-4.189c0-2.824-2.322-4.9-5.476-4.9a6.191,6.191,0,0,0-6.213,6.229,5.6,5.6,0,0,0,5.947,5.758A6,6,0,0,0,90.8-1.448l-.5-.392A5.268,5.268,0,0,1,85.483.639,4.942,4.942,0,0,1,80.2-4.523a5.488,5.488,0,0,1,5.57-5.633c2.84,0,4.817,1.742,4.817,4.283,0,2.087-1.553,3.562-2.84,3.562a.586.586,0,0,1-.6-.533,2.551,2.551,0,0,1,.173-.879Zm-2.4,3.593c-.408,1.13-1.114,1.695-1.867,1.695-.643,0-.989-.549-.989-1.334,0-1.789,1.365-3.593,2.526-3.593.612,0,.957.455,1.02,1.287ZM100.593-7h-1.3L97.91-2.483c-.2.675-.377,1.318-.565,1.993h-.157c-.188-.69-.345-1.287-.549-1.961L95.227-7H93.862L96.639.859l-.126.377c-.377,1.145-.957,1.6-1.82,1.6a4.216,4.216,0,0,1-.832-.094l.078,1.051a4.732,4.732,0,0,0,.769.063c1.428,0,2.338-.659,2.965-2.463Zm6.119-.173c-2.04,0-3.452,1.632-3.452,4.221,0,2.573,1.4,4.174,3.436,4.174S110.148-.412,110.148-3,108.72-7.175,106.712-7.175Zm0,.988c1.334,0,2.134,1.145,2.134,3.2,0,2.087-.816,3.217-2.15,3.217s-2.134-1.145-2.134-3.217C104.562-5.041,105.363-6.186,106.712-6.186Zm12.49.926a2.849,2.849,0,0,0-2.95-1.93c-1.9,0-2.84.957-2.84,2.181,0,1.24.549,1.867,2.354,2.322l.643.141c1.459.377,1.757.643,1.757,1.491,0,.706-.5,1.318-1.82,1.318a1.941,1.941,0,0,1-1.977-1.444l-1.24.439A3.061,3.061,0,0,0,116.315,1.2c2.087,0,3.091-1.036,3.091-2.385,0-1.318-.675-1.93-2.51-2.369l-.643-.157c-1.3-.314-1.647-.628-1.647-1.4,0-.675.6-1.145,1.632-1.145a1.722,1.722,0,0,1,1.742,1.381Zm5.068-5.492H123V1.016h1.271V-4.476a3.234,3.234,0,0,1,2.338-1.585c.863,0,1.349.486,1.349,1.632V1.016h1.3v-5.9a2.122,2.122,0,0,0-2.228-2.306,3.652,3.652,0,0,0-2.762,1.616ZM134.641-7h-1.287V1.016h1.287Zm.141-3.091h-1.569V-8.54h1.569Zm5.633.314L139.16-9.5V-7h-1.3v.988h1.3V-.836a1.821,1.821,0,0,0,2.071,2.04,8.221,8.221,0,0,0,1.24-.078l.063-.988a4.437,4.437,0,0,1-1,.094c-.722,0-1.114-.408-1.114-1.3V-6.013h1.914V-7h-1.914Zm8.081,2.6c-2.04,0-3.452,1.632-3.452,4.221,0,2.573,1.4,4.174,3.436,4.174S151.932-.412,151.932-3,150.5-7.175,148.5-7.175Zm0,.988c1.334,0,2.134,1.145,2.134,3.2,0,2.087-.816,3.217-2.15,3.217s-2.134-1.145-2.134-3.217C146.346-5.041,147.146-6.186,148.5-6.186ZM156.8-7h-1.224V1.016h1.255V-4.476a2.81,2.81,0,0,1,2.165-1.585c.785,0,1.255.471,1.255,1.632V1.016H161.5V-4.476a2.759,2.759,0,0,1,2.134-1.585c.832,0,1.318.5,1.318,1.632V1.016h1.287v-5.9a2.067,2.067,0,0,0-2.15-2.291,3.35,3.35,0,0,0-2.667,1.616,1.9,1.9,0,0,0-2.008-1.616,3.223,3.223,0,0,0-2.62,1.632Zm14.827,0h-1.287V1.016h1.287Zm.141-3.091H170.2V-8.54h1.569ZM182.042-7h-1.491l-3.53,4v-7.751h-1.255V1.016h1.255V-1.6l1.412-1.506L180.8,1.016h1.444L179.3-3.958Zm6.26-.173c-2.04,0-3.452,1.632-3.452,4.221,0,2.573,1.4,4.174,3.436,4.174S191.738-.412,191.738-3,190.311-7.175,188.3-7.175Zm0,.988c1.334,0,2.134,1.145,2.134,3.2,0,2.087-.816,3.217-2.15,3.217s-2.134-1.145-2.134-3.217C186.153-5.041,186.953-6.186,188.3-6.186ZM196.6-7h-1.224V1.016h1.255V-4.476A2.81,2.81,0,0,1,198.8-6.061c.785,0,1.255.471,1.255,1.632V1.016h1.255V-4.476a2.759,2.759,0,0,1,2.134-1.585c.832,0,1.318.5,1.318,1.632V1.016h1.287v-5.9a2.067,2.067,0,0,0-2.15-2.291,3.35,3.35,0,0,0-2.667,1.616,1.9,1.9,0,0,0-2.008-1.616,3.223,3.223,0,0,0-2.62,1.632Zm19.754,0h-1.271v5.476A2.978,2.978,0,0,1,212.779.09c-.863,0-1.381-.455-1.381-1.553V-7h-1.3v5.931A2.108,2.108,0,0,0,212.34,1.2a3.381,3.381,0,0,0,2.793-1.663V1.016h1.224Zm5.774-2.777-1.255.282V-7h-1.3v.988h1.3V-.836a1.821,1.821,0,0,0,2.071,2.04,8.221,8.221,0,0,0,1.24-.078l.063-.988a4.437,4.437,0,0,1-1,.094c-.722,0-1.114-.408-1.114-1.3V-6.013h1.914V-7h-1.914Zm11.485,6.967V-3.1c0-2.573-1.428-4.1-3.389-4.1-1.993,0-3.468,1.663-3.468,4.221,0,2.6,1.412,4.174,3.577,4.174a3.1,3.1,0,0,0,3.232-2.2l-1.177-.392a1.924,1.924,0,0,1-2.04,1.632c-1.428,0-2.354-1.1-2.354-3.06Zm-5.586-.91c.11-1.522.973-2.495,2.212-2.495,1.224,0,2.008.879,2.134,2.495ZM238.449-7h-1.224V1.016H238.5V-4.476a3.189,3.189,0,0,1,2.338-1.585c.863,0,1.349.486,1.349,1.632V1.016h1.3v-5.9a2.1,2.1,0,0,0-2.228-2.291,3.709,3.709,0,0,0-2.809,1.632ZM249.024-.694h-1.71v1.71h1.71ZM254.532-7h-1.271V1.314c0,1.13-.486,1.569-1.24,1.569-.126,0-.267-.016-.424-.031l.094.957c.2.016.345.047.471.047a2.14,2.14,0,0,0,2.369-2.385Zm.157-3.091h-1.569V-8.54h1.569ZM260.023-7H258.8V3.856h1.271V-.192a2.4,2.4,0,0,0,2.244,1.4c1.757,0,3.169-1.553,3.169-4.221s-1.318-4.158-3.091-4.158a2.823,2.823,0,0,0-2.369,1.428Zm.047,2.4a2.373,2.373,0,0,1,2.071-1.538c1.161,0,2.04,1.067,2.04,3.154S263.24.169,262.047.169c-.8,0-1.444-.471-1.977-1.491Z" transform="translate(549 2972.634)" fill="#fff"/>
          <g id="グループ_2" data-name="グループ 2" transform="translate(824.548 2957)">
            <g id="長方形_30" data-name="長方形 30" transform="translate(-0.083)" fill="none" stroke="#fff" stroke-width="1">
              <rect width="31" height="24" stroke="none"/>
              <rect x="0.5" y="0.5" width="30" height="23" fill="none"/>
            </g>
            <path id="パス_1" data-name="パス 1" d="M-1114.4,3923.674l15.028,12.9,15.1-12.9" transform="translate(1115.072 -3922.918)" fill="none" stroke="#fff" stroke-width="1"/>
          </g>
        </g>
        <path id="パス_153" data-name="パス 153" d="M3.264-9.168V-5.6a11.271,11.271,0,0,1-2.352.72L1.2-3.792a5.949,5.949,0,0,1,.848-.352c.3-.1.624-.224,1.216-.464V-.336c0,.352-.112.448-.576.448A11.013,11.013,0,0,1,1.152,0a2.867,2.867,0,0,1,.224,1.008A14.133,14.133,0,0,0,2.8,1.072c1.04,0,1.472-.336,1.472-1.136V-5.008c.56-.224.9-.384,1.856-.816l-.016-.96c-.784.368-.96.448-1.84.8V-9.168h.64a9.561,9.561,0,0,1,1.232.08v-1.056a7.081,7.081,0,0,1-1.2.08H4.272v-1.552a10.976,10.976,0,0,1,.1-1.6h-1.2a11.693,11.693,0,0,1,.1,1.616v1.536H2.32a7.792,7.792,0,0,1-1.3-.1v1.088a9.935,9.935,0,0,1,1.312-.1Zm9.12,6.7a13.461,13.461,0,0,1,1.584.064c-.048-.56-.064-1.072-.064-1.792v-6.384c0-.768.016-1.248.064-1.824a12.818,12.818,0,0,1-1.568.064H8.3a12.431,12.431,0,0,1-1.52-.064c.032.5.048.912.048,1.664V-4c0,.7-.016,1.184-.048,1.6.5-.048.976-.064,1.5-.064ZM7.856-11.392H12.88V-7.9H7.856Zm0,4.416H12.88v3.6H7.856ZM5.28.512A17.413,17.413,0,0,1,7.04.432H13.6a14.606,14.606,0,0,1,1.728.1V-.624a12.976,12.976,0,0,1-1.728.1H7.04a16.269,16.269,0,0,1-1.76-.08Zm18.208-7.68H19.264a9.617,9.617,0,0,1-1.5-.08v1.136a9.574,9.574,0,0,1,1.456-.08h9.6v2.208H19.744a8.47,8.47,0,0,1-1.472-.08v1.136a8.645,8.645,0,0,1,1.424-.08h9.12V-.56H19.088a9.052,9.052,0,0,1-1.472-.08V.512A10.252,10.252,0,0,1,19.1.416h9.712v.848h1.12a12.545,12.545,0,0,1-.1-1.616V-6A10.259,10.259,0,0,1,29.9-7.264a6.434,6.434,0,0,1-1.264.1H24.528V-11.9a7.832,7.832,0,0,1,.1-1.44H23.392a7.952,7.952,0,0,1,.1,1.44Zm-5.44-4.688A15.845,15.845,0,0,1,20.5-7.92l.944-.544a17.35,17.35,0,0,0-2.5-3.888Zm10.928-.592a13.011,13.011,0,0,1-2.56,4.256l.88.544a16.155,16.155,0,0,0,2.672-4.32ZM37.584-10.4H36v1.584h1.584Zm0,8.64V-3.344H36V-1.76Zm11.36-5.968v2.176H44.8a10.5,10.5,0,0,1-1.568-.1v1.12a10.88,10.88,0,0,1,1.552-.1h4.16V-.4H44.576a14.768,14.768,0,0,1-1.824-.1V.656A13.956,13.956,0,0,1,44.576.544h10.08a11.77,11.77,0,0,1,1.76.112V-.5a13.409,13.409,0,0,1-1.744.1H49.984V-4.624h4.464a10.806,10.806,0,0,1,1.568.1v-1.12a10.21,10.21,0,0,1-1.568.1H49.984V-7.728h1.952a9.173,9.173,0,0,1,1.472.08V-8.64a17.139,17.139,0,0,0,3.12,1.632,4.958,4.958,0,0,1,.64-1.024,14.335,14.335,0,0,1-4.176-2.144,10.846,10.846,0,0,1-2.864-2.9H48.9A13.1,13.1,0,0,1,42.144-8a3.446,3.446,0,0,1,.672.944,15.284,15.284,0,0,0,2.912-1.552v.96a9.643,9.643,0,0,1,1.488-.08ZM47.2-8.608a9.667,9.667,0,0,1-1.36-.064,13.337,13.337,0,0,0,3.68-3.5,14.508,14.508,0,0,0,3.824,3.5,10.308,10.308,0,0,1-1.408.064Zm-2.352,4.9A12.094,12.094,0,0,1,46.24-.864l.928-.368a16.264,16.264,0,0,0-1.408-2.9Zm8.4-.384a10.806,10.806,0,0,1-1.6,3.024l.9.368A19.173,19.173,0,0,0,54.256-3.68Zm13.5-4.864v3.376h-2a11.706,11.706,0,0,1-1.648-.1v1.088c.5-.048,1.072-.08,1.664-.08h1.984V-.528H63.616a12.484,12.484,0,0,1-1.728-.1V.48c.48-.048,1.088-.08,1.76-.08H71.1c.656,0,1.264.032,1.744.08v-1.1a12.58,12.58,0,0,1-1.744.1H67.792V-4.672h2.384c.576,0,1.168.032,1.648.08V-5.68a11.955,11.955,0,0,1-1.664.1H67.792V-8.96H70.64c.608,0,1.216.032,1.68.08V-10a11.98,11.98,0,0,1-1.7.1H64.3a11.278,11.278,0,0,1-1.68-.1v1.12c.48-.048,1.072-.08,1.68-.08Zm-6.544,8.1a12.213,12.213,0,0,1-.112,1.92h1.248a13.382,13.382,0,0,1-.112-1.872V-9.5a30.141,30.141,0,0,0,1.5-3.52L61.68-13.36a11.171,11.171,0,0,1-.672,2.144A14.519,14.519,0,0,1,58-6.592a1.943,1.943,0,0,1,.576.912,13.174,13.174,0,0,0,1.712-2.432c-.048.736-.08,1.376-.08,2.1Zm4.848-11.664A13.117,13.117,0,0,1,68.224-10.4l.752-.816a19.8,19.8,0,0,0-3.216-2.032Z" transform="translate(487 3463)" fill="#fff"/>
      </g>
    </g>
  </g>
</svg>
